<?xml version="1.0" encoding="iso-8859-1"?>
<!-- Generator: Adobe Illustrator 19.0.0, SVG Export Plug-In . SVG Version: 6.00 Build 0)  -->
<svg version="1.1" id="Capa_1" xmlns="http://www.w3.org/2000/svg" xmlns:xlink="http://www.w3.org/1999/xlink" x="0px" y="0px"
	 viewBox="0 0 512 512" style="enable-background:new 0 0 512 512;" xml:space="preserve">
<circle style="fill:#F7CF2B;" cx="182.287" cy="28.135" r="28.135"/>
<path style="fill:#E0BC24;" d="M176.632,28.135c0-11.541,6.952-21.454,16.894-25.793C190.082,0.838,186.283,0,182.285,0
	c-15.538,0-28.135,12.596-28.135,28.135s12.596,28.135,28.135,28.135c3.998,0,7.797-0.84,11.241-2.342
	C183.584,49.589,176.632,39.676,176.632,28.135z"/>
<path style="fill:#EB9500;" d="M470.083,114.844c0.137,7.784-2.96,14.853-8.048,19.941c-4.972,4.961-11.851,8.048-19.435,8.048
	h-83.712c-19.572,0-35.394,15.959-35.236,35.531l0.432,52.743l74.169,74.169c9.807,9.807,9.807,25.702,0,35.509l-54.607,54.618
	c11.829,11.945,11.798,31.222-0.105,43.125l-3.992,4.003l-21.51-21.826l-0.158,0.158l-35.12-35.92l62.213-61.918l-40.639-40.639
	c-1.433-1.433-3.55-2.718-5.815-3.666c-2.275-0.938-4.698-1.517-6.71-1.517c-8.406,0-12.62,10.165-6.678,16.117l11.956,11.956
	c9.807,9.807,9.807,25.703,0,35.509l-54.713,54.512c11.945,11.935,11.945,31.296,0,43.231l-3.992,4.003l-21.51-21.826l-0.158,0.158
	l-35.109-35.92l62.202-61.918l-56.398-56.398v-88.558c0-19.456-15.78-35.236-35.246-35.236H68.776
	c-15.095,0-27.841-11.914-28.094-27.009c-0.126-7.774,2.971-14.821,8.048-19.898c4.972-4.982,11.84-8.058,19.424-8.058h373.824
	C457.063,87.867,469.809,99.759,470.083,114.844z"/>
<g>
	<path style="fill:#D37E02;" d="M187.404,178.068c0-19.456-15.78-35.236-35.246-35.236H68.772
		c-15.095,0-27.841-11.914-28.094-27.009c-0.053-3.118,0.421-6.131,1.338-8.933c3.666,11.134,14.421,19.087,26.756,19.087h83.386
		c19.466,0,35.246,15.78,35.246,35.236L187.404,178.068L187.404,178.068z"/>
	<path style="fill:#D37E02;" d="M470.078,114.844c0.137,7.784-2.96,14.853-8.048,19.941c-4.972,4.961-11.851,8.048-19.435,8.048
		h-83.712c-18.54,0-33.708,14.305-35.12,32.444l-0.116-13.768c-0.158-19.572,15.664-35.531,35.236-35.531h83.712
		c7.584,0,14.463-3.086,19.435-8.048c3.044-3.044,5.362-6.784,6.71-10.966C469.562,109.45,470.026,112.094,470.078,114.844z"/>
</g>
<path style="fill:#0387D8;" d="M471.326,460.49c0,4.645-0.632,9.375-1.959,14.063c-7.742,27.335-36.194,43.231-63.54,35.488
	L93.604,421.578c-22.648-6.415-37.437-27.04-37.437-49.488c0-4.635,0.621-9.365,1.959-14.052
	c7.753-27.346,36.194-43.231,63.54-35.488l30.854,8.743l64.593,18.308l101.63,28.778l32.655,9.249l82.49,23.375
	C456.536,417.427,471.326,438.053,471.326,460.49z"/>
<polygon style="fill:#027DBA;" points="339.548,442.53 297.086,399.014 238.381,442.53 152.52,331.293 217.113,349.6 
	318.743,378.379 "/>
<path style="fill:#D37E02;" d="M307.535,87.867c0,37.532-30.422,67.954-67.954,67.954s-67.954-30.422-67.954-67.954
	C171.628,87.867,307.535,87.867,307.535,87.867z"/>
<circle style="fill:#F9DCA2;" cx="255.382" cy="87.873" r="67.954"/>
<path style="fill:#E5C691;" d="M219.027,87.869c0-32.088,22.247-58.964,52.155-66.089c-5.072-1.208-10.358-1.867-15.801-1.867
	c-37.531,0-67.956,30.425-67.956,67.956s30.425,67.956,67.956,67.956c5.443,0,10.729-0.658,15.801-1.867
	C241.275,146.833,219.027,119.957,219.027,87.869z"/>
<g>
	<path style="fill:#363D3F;" d="M245.288,112.02c-4.363,0-7.9-3.537-7.9-7.9V87.866c0-4.363,3.537-7.9,7.9-7.9s7.9,3.537,7.9,7.9
		v16.254C253.188,108.482,249.651,112.02,245.288,112.02z"/>
	<path style="fill:#363D3F;" d="M285.174,112.02c-4.364,0-7.9-3.537-7.9-7.9V87.866c0-4.363,3.536-7.9,7.9-7.9
		c4.364,0,7.9,3.537,7.9,7.9v16.254C293.075,108.482,289.538,112.02,285.174,112.02z"/>
</g>
<g>
	<path style="fill:#F9DCA2;" d="M87.853,87.867v54.965h-19.15c-15.063,0-27.736-11.882-28.02-26.935
		c-0.063-3.129,0.4-6.131,1.306-8.943c1.338-4.214,3.676-7.974,6.731-11.029c4.972-4.982,11.851-8.058,19.435-8.058
		C68.155,87.867,87.853,87.867,87.853,87.867z"/>
	<path style="fill:#F9DCA2;" d="M470.072,114.791c0.158,7.806-2.939,14.895-8.037,20.004c-4.983,4.961-11.851,8.037-19.435,8.037
		h-19.698V87.867h19.129c12.325,0,23.059,7.964,26.714,19.108C469.556,109.44,470.019,112.063,470.072,114.791z"/>
</g>
<rect x="247.481" y="155.827" style="fill:#D37E02;" width="15.801" height="125.215"/>
<path style="fill:#0387D8;" d="M323.333,87.873H187.426c0-37.532,30.422-67.964,67.954-67.964c5.267,0,10.397,0.6,15.327,1.728
	c0.032,0.011,0.053,0.021,0.084,0.021C300.897,28.641,323.333,55.64,323.333,87.873z"/>
<path style="fill:#027DBA;" d="M271.18,21.784c-29.905,7.121-52.153,33.993-52.153,66.089h-31.601
	c0-37.532,30.422-67.964,67.954-67.964c5.267,0,10.397,0.6,15.327,1.728c0.032,0.011,0.053,0.021,0.084,0.021
	C270.917,21.71,271.054,21.752,271.18,21.784z"/>
<g>
	<path style="fill:#E5C691;" d="M87.853,125.978v16.854h-19.15c-15.063,0-27.736-11.882-28.02-26.935
		c-0.063-3.129,0.4-6.131,1.306-8.943c0.011-0.021,0.021-0.042,0.032-0.063c3.666,11.134,14.421,19.087,26.756,19.087H87.853z"/>
	<path style="fill:#E5C691;" d="M470.072,114.791c0.158,7.806-2.939,14.895-8.037,20.004c-4.983,4.961-11.851,8.037-19.435,8.037
		h-19.698v-16.854H442.6c7.584,0,14.463-3.086,19.435-8.048c3.044-3.044,5.362-6.773,6.71-10.955
		C469.556,109.44,470.019,112.063,470.072,114.791z"/>
</g>
<path style="fill:#455256;" d="M398.244,340.79l-54.607,54.607c11.84,11.945,11.808,31.233-0.095,43.136l-4.003,3.992l-21.51-21.816
	l-0.158,0.147l-35.109-35.92l62.213-61.907l-40.639-40.639c-1.433-1.433-3.55-2.728-5.825-3.666
	c-2.275-0.948-4.688-1.527-6.71-1.527c-8.406,0-12.62,10.165-6.668,16.117l11.956,11.956c9.807,9.807,9.807,25.713,0,35.52
	l-54.713,54.502c11.935,11.945,11.935,31.296,0,43.241l-3.992,3.992l-21.521-21.816l-0.147,0.147l-35.12-35.92l62.213-61.907
	l-56.409-56.409l136.687-35.52l74.158,74.169C408.051,315.077,408.051,330.983,398.244,340.79z"/>
<g>
	<path style="fill:#323F42;" d="M235.851,420.71l-0.147,0.147l-35.12-35.92l62.213-61.907l-26.464-26.464
		c-13.25-13.25-7.095-35.881,11.042-40.594l80.624-20.951l-3.918-3.918l-136.687,35.52l56.409,56.409l-62.213,61.907l35.12,35.92
		l0.147-0.147l21.521,21.815l3.992-3.992c1.928-1.929,3.538-4.053,4.843-6.306L235.851,420.71z"/>
	<path style="fill:#323F42;" d="M337.017,420.71l-0.158,0.147l-35.109-35.92l62.213-61.907l-40.639-40.639
		c-1.433-1.433-3.55-2.728-5.825-3.666c-2.275-0.948-4.688-1.527-6.71-1.527c-3.414,0-6.117,1.69-7.748,4.079
		c0.471,0.359,0.905,0.731,1.288,1.114l40.639,40.639l-62.213,61.907l35.109,35.92l0.158-0.147l21.51,21.816l4.003-3.992
		c1.927-1.927,3.537-4.049,4.842-6.301L337.017,420.71z"/>
</g>
<g>
	<path style="fill:#EB9500;" d="M252.566,385.137l-10.186,10.155c11.935,11.945,11.935,31.296,0,43.241l-4.003,3.992l-21.51-21.816
		l-0.158,0.147l-35.109-35.92l35.467-35.299L252.566,385.137z"/>
	<path style="fill:#EB9500;" d="M343.641,395.397c11.84,11.945,11.808,31.233-0.105,43.136l-3.992,3.992l-21.51-21.816l-0.158,0.147
		l-35.12-35.92l35.783-35.604l35.583,35.583L343.641,395.397z"/>
</g>
<g>
</g>
<g>
</g>
<g>
</g>
<g>
</g>
<g>
</g>
<g>
</g>
<g>
</g>
<g>
</g>
<g>
</g>
<g>
</g>
<g>
</g>
<g>
</g>
<g>
</g>
<g>
</g>
<g>
</g>
</svg>
